PathFileType	4	(X/Y/Z)	/Users/itak/Documents/Research/Walk-IL/dataset/trc/00328_00011.trc
DataRate	CameraRate	NumFrames	NumMarkers	Units	OrigDataRate	OrigDataStartFrame	OrigNumFrames
100.000000	100.000000	4	54	mm	100.000000	140	561
Frame#	Time	RPSI			LPSI			L3			STRN			T10			C7			CLAV			RBAK			LBAK			LSHO			LUPA			LAEL			LAOL			LWTS			LWPS			LFRA			LIFD			LHPS			LHTS			RSHO			RUPA			RAEL			RAOL			RWTS			RWPS			RFRA			RIFD			RHTS			RHPS			RBHD			LFHD			RFHD			LBHD			LHIP			RHIP			RASI			LASI			LKNE			LTHI			LANK			LTIP			LTOE			LMT1			LMT5			LHEE			RKNE			RTHI			RANK			RTIP			RTOE			RMT1			RMT5			RHEE			*53			
		X1	Y1	Z1	X2	Y2	Z2	X3	Y3	Z3	X4	Y4	Z4	X5	Y5	Z5	X6	Y6	Z6	X7	Y7	Z7	X8	Y8	Z8	X9	Y9	Z9	X10	Y10	Z10	X11	Y11	Z11	X12	Y12	Z12	X13	Y13	Z13	X14	Y14	Z14	X15	Y15	Z15	X16	Y16	Z16	X17	Y17	Z17	X18	Y18	Z18	X19	Y19	Z19	X20	Y20	Z20	X21	Y21	Z21	X22	Y22	Z22	X23	Y23	Z23	X24	Y24	Z24	X25	Y25	Z25	X26	Y26	Z26	X27	Y27	Z27	X28	Y28	Z28	X29	Y29	Z29	X30	Y30	Z30	X31	Y31	Z31	X32	Y32	Z32	X33	Y33	Z33	X34	Y34	Z34	X35	Y35	Z35	X36	Y36	Z36	X37	Y37	Z37	X38	Y38	Z38	X39	Y39	Z39	X40	Y40	Z40	X41	Y41	Z41	X42	Y42	Z42	X43	Y43	Z43	X44	Y44	Z44	X45	Y45	Z45	X46	Y46	Z46	X47	Y47	Z47	X48	Y48	Z48	X49	Y49	Z49	X50	Y50	Z50	X51	Y51	Z51	X52	Y52	Z52	X53	Y53	Z53	X54	Y54	Z54	

141	1.4	862.32080078125	972.248046875	201.3915100097656	856.7597045898438	972.3330078125	73.29175567626953	855.7034301757812	1027.216430664062	142.1759033203125	1075.845458984375	1219.20556640625	114.0266265869141	835.4886474609375	1147.924194335938	132.5777740478516	864.2855834960938	1396.149291992188	110.0015487670898	1024.28173828125	1340.721435546875	109.0982360839844	824.5440063476562	1259.236083984375	185.5261688232422	854.7671508789062	1356.619018554688	8.943014144897461	938.3231811523438	1375.325317382812	-50.13237762451172	928.705810546875	1253.195068359375	-116.0229263305664	965.615234375	1049.918090820312	-119.7868881225586	899.0103759765625	1034.4873046875	-69.07034301757812	1069.87353515625	813.3572998046875	-55.78949356079102	1038.519287109375	799.53759765625	-115.6112976074219	988.86767578125	946.85205078125	-120.862548828125	1079.659423828125	652.9856567382812	-46.41271209716797	1037.515869140625	729.2466430664062	-108.4472808837891	1086.823486328125	734.903076171875	-68.23361968994141	936.7952880859375	1385.52001953125	268.5291748046875	934.856689453125	1322.841064453125	337.6434326171875	956.0651245117188	1054.554443359375	373.0082702636719	896.2607421875	1044.685668945312	298.5748901367188	1060.816650390625	829.2938232421875	306.6615905761719	1040.543212890625	814.23779296875	378.9653930664062	985.0285034179688	988.0299072265625	375.9124145507812	1084.39453125	658.3536376953125	310.9973449707031	1097.414306640625	729.9148559570312	316.9234313964844	1059.650390625	731.2141723632812	375.1936645507812	896.1826782226562	1597.659423828125	189.5519866943359	1061.723999023438	1623.773071289062	65.54055023193359	1054.959594726562	1623.843872070312	166.3865203857422	878.8056030273438	1590.750854492188	45.91447067260742	937.1256713867188	912.6693115234375	-33.44488906860352	947.3662109375	919.9177856445312	307.3361206054688	1048.847290039062	948.2257690429688	258.2198181152344	1060.721557617188	942.9307250976562	18.25612449645996	986.2284545898438	456.0010681152344	-22.42937660217285	984.6297607421875	595.0798950195312	-30.9561767578125	903.8944091796875	40.16101837158203	0.9738243818283081	943.0690307617188	240.6324615478516	-20.38553619384766	1112.100219726562	32.94895935058594	49.04397201538086	1044.332153320312	19.53817749023438	93.56208038330078	1029.271484375	34.87006378173828	-18.30049324035645	872.698974609375	34.69904327392578	69.67269134521484	979.4725952148438	454.0185852050781	288.4728393554688	1029.871826171875	716.8187255859375	308.7243041992188	918.0489501953125	40.97176361083984	265.8250427246094	984.7376098632812	333.7691650390625	278.3380737304688	1105.977416992188	35.72355270385742	199.135986328125	1047.034301757812	31.78304290771484	162.7457275390625	1019.847839355469	26.21748161315918	277.7808532714844	864.3294067382812	43.36361312866211	221.8027648925781	nan	nan	nan	
142	1.41	861.8161010742188	972.2412109375	201.4057159423828	856.342041015625	972.2637329101562	73.28431701660156	855.1290893554688	1027.247192382812	142.0965423583984	1075.394897460938	1219.133422851562	114.1984024047852	835.1004638671875	1147.914306640625	132.5585632324219	863.8749389648438	1396.153198242188	109.9777603149414	1023.932739257812	1340.750244140625	109.1744842529297	824.1630859375	1259.292602539062	185.4955902099609	854.5032348632812	1356.655029296875	8.935656547546387	938.0535278320312	1375.345092773438	-50.09002304077148	928.3751831054688	1253.223876953125	-116.0018920898438	965.1302490234375	1049.928588867188	-119.7861709594727	898.5057373046875	1034.583862304688	-69.07854461669922	1069.195556640625	813.2919311523438	-55.74873733520508	1037.860473632812	799.5091552734375	-115.5478134155273	988.3013916015625	946.86474609375	-120.8640060424805	1078.878051757812	652.8858642578125	-46.28400039672852	1036.83154296875	729.2273559570312	-108.4326324462891	1086.084594726562	734.881103515625	-68.09268951416016	936.3075561523438	1385.517211914062	268.5861511230469	934.3617553710938	1322.835205078125	337.7229614257812	955.6838989257812	1054.6201171875	373.2129211425781	895.9729614257812	1044.588134765625	298.6702575683594	1060.42578125	829.3717041015625	306.71826171875	1040.129028320312	814.3184814453125	379.0705871582031	984.6122436523438	988.0789184570312	376.0197448730469	1084.112182617188	658.3670043945312	311.1862182617188	1097.113891601562	730.066650390625	317.0106811523438	1059.3837890625	731.2548217773438	375.3162231445312	895.8684692382812	1597.725708007812	189.5840911865234	1061.4140625	1623.7431640625	65.68593597412109	1054.595092773438	1623.817260742188	166.5024871826172	878.5166015625	1590.755493164062	45.9239501953125	936.906982421875	912.643310546875	-33.43204498291016	946.670654296875	920.0050659179688	307.41552734375	1048.30078125	948.2937622070312	258.3459167480469	1060.340454101562	942.856201171875	18.37944221496582	986.1717529296875	456.0137634277344	-22.59973335266113	984.567626953125	595.0599975585938	-31.05627822875977	903.8663330078125	40.07820892333984	0.7782590985298157	943.0507202148438	240.5732116699219	-20.65193748474121	1112.059936523438	32.98770904541016	48.99392318725586	1044.318969726562	19.54180335998535	93.54167175292969	1029.275756835938	34.80424118041992	-18.34521865844727	872.6989135742188	34.71928405761719	69.59077453613281	979.4406127929688	454.0572204589844	288.5431518554688	1029.474853515625	716.9489135742188	308.7317810058594	918.0510864257812	40.97883224487305	265.8278503417969	984.7509155273438	333.7665100097656	278.4092712402344	1105.968627929688	35.75275039672852	199.1473236083984	1047.0263671875	31.78881645202637	162.7562866210938	1019.843200683594	26.2130012512207	277.7920837402344	864.3297729492188	43.38644790649414	221.8153381347656	nan	nan	nan	
143	1.42	861.25	972.2310791015625	201.4406890869141	855.8600463867188	972.1951904296875	73.27619934082031	854.5894775390625	1027.273071289062	142.0733489990234	1074.930053710938	1219.077758789062	114.3873291015625	834.6778564453125	1147.911010742188	132.5604553222656	863.4646606445312	1396.177734375	109.9543762207031	1023.568420410156	1340.778198242188	109.2867202758789	823.7318115234375	1259.343139648438	185.4744873046875	854.2090454101562	1356.684814453125	8.939722061157227	937.7783813476562	1375.383056640625	-50.03021621704102	928.047119140625	1253.257080078125	-115.9533920288086	964.6283569335938	1049.951171875	-119.7743301391602	897.9793701171875	1034.68359375	-69.06443786621094	1068.512573242188	813.2400512695312	-55.70288467407227	1037.16455078125	799.4751586914062	-115.4614410400391	987.7081298828125	946.8812866210938	-120.861198425293	1078.07568359375	652.801025390625	-46.14797592163086	1036.132568359375	729.2322387695312	-108.4172668457031	1085.3271484375	734.8680419921875	-67.94399261474609	935.8096313476562	1385.512573242188	268.6860656738281	933.833251953125	1322.830322265625	337.8111877441406	955.2877197265625	1054.6865234375	373.3905639648438	895.61328125	1044.487060546875	298.8113403320312	1060.013061523438	829.4277954101562	306.800048828125	1039.681274414062	814.3814086914062	379.1756286621094	984.177001953125	988.126953125	376.1422729492188	1083.797485351562	658.3667602539062	311.4214477539062	1096.801147460938	730.2711181640625	317.0832824707031	1059.06982421875	731.2799072265625	375.4503479003906	895.5294799804688	1597.791381835938	189.635009765625	1061.108642578125	1623.7158203125	65.8326416015625	1054.223999023438	1623.787109375	166.6446838378906	878.2377319335938	1590.761352539062	45.95495223999023	936.6836547851562	912.6167602539062	-33.39017868041992	945.9048461914062	920.1078491210938	307.5121459960938	1047.699340820312	948.343505859375	258.5165405273438	1059.938354492188	942.779296875	18.52487373352051	986.1470336914062	456.0304870605469	-22.81899261474609	984.5331420898438	595.0428466796875	-31.15997505187988	903.8390502929688	39.98215484619141	0.5430833697319031	943.068603515625	240.5015258789062	-20.96819305419922	1112.012939453125	33.02820587158203	48.93846893310547	1044.302001953125	19.54715347290039	93.51536560058594	1029.2822265625	34.71967315673828	-18.40436172485352	872.6993408203125	34.75164031982422	69.47991943359375	979.450439453125	454.1000671386719	288.6296691894531	1029.00732421875	717.0947875976562	308.75634765625	918.0567016601562	40.9950065612793	265.8245849609375	984.795654296875	333.7547607421875	278.4937744140625	1105.960815429688	35.78123474121094	199.1569061279297	1047.019897460938	31.78768348693848	162.7656707763672	1019.844543457031	26.21762847900391	277.798095703125	864.3302612304688	43.41814041137695	221.8236389160156	nan	nan	nan	
144	1.43	860.6231689453125	972.2196044921875	201.5041809082031	855.3235473632812	972.131591796875	73.26839447021484	854.0778198242188	1027.296875	142.1104583740234	1074.460571289062	1219.0458984375	114.5849456787109	834.2274169921875	1147.918334960938	132.5907592773438	863.0663452148438	1396.228637695312	109.9369735717773	1023.180358886719	1340.801147460938	109.4390640258789	823.2396240234375	1259.389770507812	185.4665985107422	853.8758544921875	1356.706665039062	8.963294982910156	937.4959716796875	1375.437622070312	-49.94907379150391	927.7203369140625	1253.298461914062	-115.8756637573242	964.103515625	1049.986328125	-119.7488403320312	897.4224243164062	1034.78369140625	-69.02915954589844	1067.811157226562	813.2039794921875	-55.64700698852539	1036.428833007812	799.4338989257812	-115.360221862793	987.0857543945312	946.8959350585938	-120.84814453125	1077.244140625	652.7337646484375	-46.00933456420898	1035.407836914062	729.2543334960938	-108.3879241943359	1084.5517578125	734.8583984375	-67.80464172363281	935.309326171875	1385.509643554688	268.8246154785156	933.2753295898438	1322.830322265625	337.90625	954.8482666015625	1054.7470703125	373.5303344726562	895.1797485351562	1044.38623046875	298.9930419921875	1059.583129882812	829.4664306640625	306.9166564941406	1039.199340820312	814.4330444335938	379.285400390625	983.70947265625	988.1627197265625	376.2744140625	1083.458251953125	658.3688354492188	311.6956787109375	1096.477416992188	730.5067749023438	317.1561279296875	1058.694946289062	731.2901000976562	375.5936584472656	895.1488037109375	1597.856689453125	189.7055053710938	1060.801513671875	1623.692260742188	65.98058319091797	1053.845703125	1623.756713867188	166.8174743652344	877.9578247070312	1590.769165039062	46.01016235351562	936.4429321289062	912.5924682617188	-33.31234741210938	945.0964965820312	920.2210083007812	307.6351318359375	1047.033569335938	948.388916015625	258.7385559082031	1059.52001953125	942.7168579101562	18.6928768157959	986.1670532226562	456.0512390136719	-23.0860424041748	984.5269165039062	595.0311279296875	-31.2608528137207	903.8135986328125	39.87531661987305	0.2735871076583862	943.13525390625	240.4193115234375	-21.32614326477051	1111.9599609375	33.06778717041016	48.88060760498047	1044.281982421875	19.55477523803711	93.48424530029297	1029.291015625	34.61723327636719	-18.47761344909668	872.7015991210938	34.79853820800781	69.33655548095703	979.5217895507812	454.1414794921875	288.7298583984375	1028.4970703125	717.2510375976562	308.8072509765625	918.0677490234375	41.02463912963867	265.8130493164062	984.8855590820312	333.7324523925781	278.5866394042969	1105.955078125	35.80657577514648	199.1627197265625	1047.016845703125	31.77872848510742	162.7723388671875	1019.855041503906	26.23528861999512	277.7944030761719	864.3320922851562	43.45958709716797	221.8236694335938	nan	nan	nan	
